<svg width="900" height="960" viewBox="0 0 900 960" fill="none" xmlns="http://www.w3.org/2000/svg">
<rect width="900" height="960" rx="48" fill="#142314"/>
<rect x="44" y="44" width="812" height="872" rx="36" fill="url(#paint0_linear_1_2)"/>
<circle cx="703" cy="171" r="103" fill="#8EC63F" fill-opacity="0.18"/>
<circle cx="639" cy="258" r="42" fill="#F2EDE4" fill-opacity="0.1"/>
<path d="M88 738C203.333 621.333 335.333 563 484 563C632.667 563 767.667 621.333 889 738V916H88V738Z" fill="#F2EDE4"/>
<path d="M145 723C224.333 641 325 600 447 600C569 600 680.333 641 781 723V916H145V723Z" fill="#E8E0D4"/>
<path d="M218 916C250 767.124 322.667 692.667 436 692.667C549.333 692.667 640.667 767.124 710 916H218Z" fill="#2E5C2E"/>
<path d="M466 144C561.667 144 639 221.333 639 317V497H293V317C293 221.333 370.333 144 466 144Z" fill="#F2EDE4" fill-opacity="0.15" stroke="#F2EDE4" stroke-width="18"/>
<path d="M466 191C533.93 191 589 246.07 589 314V497H343V314C343 246.07 398.07 191 466 191Z" fill="#F2EDE4" fill-opacity="0.08"/>
<path d="M375 497H557V617C557 667.81 515.81 709 465 709C414.19 709 373 667.81 373 617V499C373 497.895 373.895 497 375 497Z" fill="#F2EDE4"/>
<path d="M405 541H526V617C526 650.689 498.689 678 465 678C431.311 678 404 650.689 404 617V542C404 541.448 404.448 541 405 541Z" fill="#152215"/>
<path d="M309 538C336.667 496.667 357.667 432 372 344" stroke="#8EC63F" stroke-width="13" stroke-linecap="round"/>
<path d="M624 544C596.333 502.667 576 438 563 352" stroke="#8EC63F" stroke-width="13" stroke-linecap="round"/>
<path d="M227.499 683.5C181.499 645.5 168.999 580.5 204.999 532.5C240.999 484.5 307.999 472.5 353.999 510.5C299.999 566.5 264.499 624.5 227.499 683.5Z" fill="#3D7A3D"/>
<path d="M669.001 692.5C715.001 654.5 727.501 589.5 691.501 541.5C655.501 493.5 588.501 481.5 542.501 519.5C596.501 575.5 632.001 633.5 669.001 692.5Z" fill="#3D7A3D"/>
<path d="M251 792C302.015 747.771 352.348 725.656 402 725.656C451.652 725.656 505.985 747.771 565 792" stroke="#152215" stroke-opacity="0.18" stroke-width="14" stroke-linecap="round"/>
<path d="M631 786C660.333 744 694 711 732 687" stroke="#152215" stroke-opacity="0.18" stroke-width="16" stroke-linecap="round"/>
<path d="M204 786C174.667 744 141 711 103 687" stroke="#152215" stroke-opacity="0.18" stroke-width="16" stroke-linecap="round"/>
<path d="M738 335C776.66 302.078 782.603 244.193 751.272 205.68C719.941 167.167 662.85 162.592 624.19 195.513C672.915 231.909 711.749 278.57 738 335Z" fill="#8EC63F"/>
<path d="M155 334C116.34 301.078 110.397 243.193 141.728 204.68C173.059 166.167 230.15 161.592 268.81 194.513C220.085 230.909 181.251 277.57 155 334Z" fill="#8EC63F"/>
<defs>
<linearGradient id="paint0_linear_1_2" x1="120" y1="96" x2="750" y2="902" gradientUnits="userSpaceOnUse">
<stop stop-color="#1B301B"/>
<stop offset="1" stop-color="#132213"/>
</linearGradient>
</defs>
</svg>
